<svg width="703" height="228" viewBox="0 0 703 228" fill="none" xmlns="http://www.w3.org/2000/svg">
    <g opacity="0.9">
        <path opacity="0.3"
            d="M102.084 182.726H151.967V79.89H153.348V76.9738H150.279V73.2133H125.721V67.5343H116.358L114.976 63.7739H112.674V57.0972H112.137H111.676V63.7739H107.379V67.5343V71.8319V73.2133H103.772V76.9738H100.702V79.89H102.084V182.726Z"
            fill="white" />
        <path opacity="0.3"
            d="M113.058 56.1763C113.058 55.6391 112.674 55.2554 112.137 55.2554C111.6 55.2554 111.216 55.6391 111.216 56.1763C111.216 56.7135 111.6 57.0972 112.137 57.0972C112.674 57.0972 113.058 56.7135 113.058 56.1763Z"
            fill="white" />
        <path opacity="0.3"
            d="M564.617 188.712V50.4973L503.222 37.7578L509.976 188.712H329.935V103.374H326.635V52.2624H318.04V38.5253H315.047V18.4952H298.163V3.76043H296.705V18.4952H293.405V0H291.87V18.4952H281.203V52.2624H275.754V103.374H270.996V188.712H223.108V75.0552H223.952V73.7506H218.043V65.846H218.81V64.6181H213.438V60.0135H213.899V59.0926H211.597V54.7949H209.371H208.987V39.4462H208.757H208.45H208.143V54.7949H207.145V46.2764H206.915H206.608H206.301V54.7949H203.692V59.0926H201.006V60.0135H201.85V64.6181H196.478V65.846H197.246V73.7506H191.336V75.0552H192.18V188.712H32.4771V204.215H684.184V188.712H564.617Z"
            fill="white" />
    </g>
    <path
        d="M672.035 202.842V188.791H652.435L645.008 133.513H643.86V126.873H639.955V133.513H638.96V131.042H636.203V133.513H630.538V127.723H629.006V123.708H617.905V127.723H616.373V133.513H614.842V166.71H604.965V82.5587H601.75V64.1071H600.678V82.5587H598.228V56.9272H597.156V82.5587H595.012V68.6621H593.94V82.5587H574.799V142.314H553.514V181.07H533.684L517.912 151.733C520.592 150.189 523.042 148.336 525.339 146.174L528.554 149.648C527.865 150.266 527.406 151.192 527.406 152.196C527.406 154.049 528.861 155.516 530.698 155.516C532.536 155.516 533.99 154.049 533.99 152.196C533.99 150.343 532.536 148.876 530.698 148.876C530.009 148.876 529.32 149.108 528.784 149.494L525.492 146.02C525.798 145.788 526.028 145.479 526.334 145.248C529.779 141.774 532.459 137.836 534.45 133.59L538.048 135.289C537.972 135.52 537.972 135.829 537.972 136.138C537.972 137.991 539.427 139.458 541.264 139.458C543.102 139.458 544.556 137.991 544.556 136.138C544.556 134.285 543.102 132.818 541.264 132.818C539.809 132.818 538.661 133.745 538.201 134.98L534.68 133.359C536.9 128.495 538.125 123.245 538.278 117.763L542.183 117.918C542.259 119.694 543.714 121.16 545.475 121.16C547.313 121.16 548.767 119.694 548.767 117.841C548.767 115.988 547.313 114.521 545.475 114.521C543.714 114.521 542.336 115.833 542.183 117.609L538.278 117.455C538.278 117.069 538.278 116.683 538.278 116.297C538.278 111.433 537.436 106.723 535.828 102.246L539.044 101.01C539.58 102.168 540.728 103.018 542.106 103.018C543.944 103.018 545.399 101.551 545.399 99.6979C545.399 97.845 543.944 96.3781 542.106 96.3781C540.269 96.3781 538.814 97.845 538.814 99.6979C538.814 100.007 538.891 100.393 538.967 100.702L535.751 101.937C533.914 96.9186 531.081 92.3636 527.406 88.349L529.933 85.9557C530.545 86.4961 531.311 86.8821 532.229 86.8821C534.067 86.8821 535.522 85.4152 535.522 83.5624C535.522 81.7095 534.067 80.2426 532.229 80.2426C530.392 80.2426 528.937 81.7095 528.937 83.5624C528.937 84.4116 529.244 85.1064 529.703 85.7241L527.176 88.1174C526.947 87.8085 526.64 87.577 526.411 87.2681C522.582 83.408 518.142 80.397 513.242 78.3898L514.62 74.9928C514.926 75.07 515.309 75.1472 515.615 75.1472C517.453 75.1472 518.907 73.6803 518.907 71.8275C518.907 69.9746 517.453 68.5077 515.615 68.5077C513.778 68.5077 512.323 69.9746 512.323 71.8275C512.323 73.2171 513.165 74.3752 514.314 74.9156L512.935 78.3125C508.571 76.5369 503.901 75.5332 499.077 75.3788L499.23 70.6694H499.307C501.145 70.6694 502.599 69.2025 502.599 67.3497C502.599 65.4968 501.145 64.0299 499.307 64.0299C497.469 64.0299 496.015 65.4968 496.015 67.3497C496.015 69.0481 497.24 70.4378 498.848 70.6694L498.694 75.3788C498.312 75.3788 497.929 75.3788 497.546 75.3788C492.952 75.3788 488.435 76.1509 484.147 77.6177L482.846 73.8348C484.071 73.3715 484.913 72.1363 484.913 70.7466C484.913 68.8937 483.458 67.4269 481.621 67.4269C479.783 67.4269 478.328 68.8937 478.328 70.7466C478.328 72.5995 479.783 74.0664 481.621 74.0664C481.927 74.0664 482.233 73.9892 482.539 73.9119L483.841 77.6949C478.711 79.5478 473.964 82.4815 469.83 86.3417L467.38 83.7168C467.916 83.0992 468.222 82.3271 468.222 81.4779C468.222 79.625 466.767 78.1581 464.93 78.1581C463.092 78.1581 461.637 79.625 461.637 81.4779C461.637 83.3308 463.092 84.7976 464.93 84.7976C465.772 84.7976 466.538 84.4888 467.073 83.9484L469.524 86.5733C469.217 86.8049 468.988 87.1137 468.681 87.3453C465.236 90.8195 462.556 94.7569 460.566 99.003L457.503 97.5362C457.58 97.2274 457.656 96.8414 457.656 96.4553C457.656 94.6025 456.201 93.1356 454.364 93.1356C452.526 93.1356 451.072 94.6025 451.072 96.4553C451.072 98.3082 452.526 99.7751 454.364 99.7751C455.665 99.7751 456.814 99.003 457.35 97.845L460.412 99.2347C458.192 104.098 456.967 109.348 456.814 114.83L452.833 114.675C452.756 112.9 451.301 111.433 449.54 111.433C447.703 111.433 446.248 112.9 446.248 114.753C446.248 116.605 447.703 118.072 449.54 118.072C451.301 118.072 452.679 116.76 452.833 114.984L456.814 115.139C456.814 115.525 456.814 115.911 456.814 116.297C456.814 121.16 457.656 125.87 459.264 130.348L456.048 131.583C455.512 130.425 454.364 129.576 452.986 129.576C451.148 129.576 449.693 131.042 449.693 132.895C449.693 134.748 451.148 136.215 452.986 136.215C454.823 136.215 456.278 134.748 456.278 132.895C456.278 132.586 456.201 132.2 456.125 131.892L459.341 130.656C461.178 135.675 464.011 140.23 467.686 144.244L465.159 146.638C464.547 146.097 463.781 145.711 462.862 145.711C461.025 145.711 459.57 147.178 459.57 149.031C459.57 150.884 461.025 152.351 462.862 152.351C464.7 152.351 466.155 150.884 466.155 149.031C466.155 148.182 465.848 147.487 465.389 146.869L467.916 144.476C468.145 144.785 468.452 145.016 468.681 145.325C471.285 147.95 474.117 150.112 477.257 151.965L461.484 181.302H448.698V161.461H443.492V123.708H445.482V122.859H400.769V123.708H402.76V142.777H398.396L394.185 164.471V93.3672H392.347V67.5813H383.083V57.3904H378.106V49.1297H376.345V35.0015H376.269V49.1297H374.508V57.3904H369.531V67.1953H360.343V92.9812H358.429V139.766H344.188V180.993H297.025V101.242H300.853V100.007H297.025V97.7678H292.201V94.062H252.847V97.7678H248.024V100.007H244.196V101.242H248.024V150.884H241.592V141.542H201.932V152.891H193.28V174.045H179.269V104.793H174.599V100.084H170.924V87.6542H170.158V100.084H168.397V84.4888H167.631V100.084H165.488V104.793H164.339V174.045H135.321V133.436H136.7V130.656H127.742V123.168H123.454V130.656H119.549V123.168H115.644V130.656H108.065V123.168H84.8657V130.656H79.4296V133.436H82.4922V148.722H73.917V183.232H62.3558V174.045H49.2634V194.118H33.4912V202.687H10.1392V227.238H692.861V202.687H672.035V202.842ZM517.606 150.729L512.17 140.538C513.931 139.535 515.539 138.3 517.07 136.91L524.879 145.325C522.582 147.41 520.132 149.262 517.606 150.729ZM497.087 118.149C497.24 118.227 497.393 118.227 497.469 118.227L496.627 143.935C493.335 143.781 490.272 143.086 487.363 141.928L497.087 118.149ZM487.133 141.774C486.215 141.388 485.296 140.924 484.454 140.461L496.627 117.841C496.704 117.918 496.78 117.918 496.857 117.995L487.133 141.774ZM497.929 118.227C498.082 118.227 498.235 118.227 498.388 118.149L506.887 142.391C504.054 143.395 500.991 143.935 497.852 143.935C497.623 143.935 497.393 143.935 497.163 143.935L497.929 118.227ZM498.694 118.072C498.848 117.995 498.924 117.918 499.077 117.841L511.251 140.461C509.949 141.156 508.648 141.774 507.193 142.314L498.694 118.072ZM500.762 119.462L516.61 136.524C515.156 137.914 513.548 139.072 511.863 140.075L500.762 119.462ZM500.073 118.149L499.613 117.3C499.69 117.223 499.69 117.146 499.766 117.069L522.889 127.877C521.434 131.042 519.367 133.899 516.917 136.215L500.073 118.149ZM499.919 116.76C499.996 116.605 499.996 116.451 500.073 116.219L525.568 117.069C525.415 120.774 524.573 124.326 523.118 127.491L499.919 116.76ZM499.996 115.911C499.996 115.756 499.996 115.602 499.919 115.447L523.807 106.569C524.879 109.503 525.415 112.745 525.415 116.065C525.415 116.297 525.415 116.528 525.415 116.76L499.996 115.911ZM499.843 115.061C499.766 114.907 499.69 114.753 499.537 114.598L518.142 96.9957C520.515 99.6207 522.506 102.709 523.731 106.106L499.843 115.061ZM499.307 114.367C499.154 114.212 499.001 114.135 498.848 114.058L508.495 90.2791C512.093 91.8231 515.232 94.062 517.912 96.8414L499.307 114.367ZM498.465 113.903C498.312 113.826 498.158 113.826 498.082 113.826L498.924 88.1174C502.216 88.2718 505.279 88.9666 508.188 90.1247L498.465 113.903ZM497.699 113.749C497.546 113.749 497.393 113.749 497.24 113.826L488.741 89.5842C491.574 88.5806 494.637 88.0402 497.776 88.0402C498.005 88.0402 498.235 88.0402 498.465 88.0402L497.699 113.749ZM496.857 113.98C496.704 114.058 496.551 114.135 496.398 114.289L478.941 95.5289C481.621 92.9812 484.836 91.0511 488.358 89.7386L496.857 113.98ZM496.168 114.521C496.091 114.675 495.938 114.753 495.862 114.907L472.739 104.098C474.194 100.933 476.261 98.0766 478.711 95.7605L496.168 114.521ZM495.708 115.216C495.632 115.37 495.632 115.525 495.555 115.756L470.059 114.907C470.213 111.201 471.055 107.65 472.51 104.484L495.708 115.216ZM495.555 116.142C495.555 116.297 495.555 116.451 495.632 116.605L471.744 125.484C470.672 122.55 470.136 119.308 470.136 115.988C470.136 115.756 470.136 115.525 470.136 115.293L495.555 116.142ZM495.785 116.991C495.862 117.146 495.938 117.223 496.015 117.377L495.862 117.686L477.486 135.057C475.113 132.432 473.122 129.344 471.897 125.947L495.785 116.991ZM495.249 118.613L483.688 140.075C481.468 138.763 479.4 137.141 477.639 135.211L495.249 118.613ZM484.147 140.924C485.066 141.388 485.985 141.851 486.904 142.314L482.539 152.968C481.238 152.428 479.936 151.81 478.635 151.115L484.147 140.924ZM487.21 142.469C490.119 143.704 493.335 144.399 496.704 144.476L496.321 155.979C491.651 155.825 487.133 154.821 482.846 153.123L487.21 142.469ZM497.087 144.476C497.316 144.476 497.546 144.476 497.852 144.476C501.068 144.476 504.207 143.935 507.04 142.932L510.868 153.817C506.734 155.284 502.37 155.979 497.852 155.979C497.469 155.979 497.087 155.979 496.78 155.979L497.087 144.476ZM507.346 142.855C508.801 142.314 510.179 141.696 511.481 141.002L516.917 151.115C515.079 152.119 513.165 153.045 511.174 153.74L507.346 142.855ZM525.875 144.321C525.645 144.553 525.339 144.862 525.109 145.093L517.3 136.678C519.826 134.285 521.893 131.351 523.425 128.109L533.837 132.973C531.847 137.141 529.167 140.924 525.875 144.321ZM533.914 132.586L523.501 127.723C524.956 124.48 525.875 120.852 526.028 117.069L537.436 117.455C537.283 122.782 536.058 127.877 533.914 132.586ZM537.512 115.988C537.512 116.374 537.512 116.76 537.512 117.069L526.104 116.683C526.104 116.451 526.104 116.219 526.104 115.911C526.104 112.514 525.492 109.271 524.42 106.26L535.139 102.246C536.67 106.646 537.512 111.278 537.512 115.988ZM526.87 88.8122C530.469 92.6724 533.225 97.1502 534.986 102.014L524.267 106.029C522.965 102.554 520.975 99.3891 518.525 96.6869L526.87 88.8122ZM525.875 87.7313C526.104 87.963 526.411 88.2718 526.64 88.5034L518.295 96.3781C515.615 93.5216 512.323 91.2055 508.724 89.6614L513.089 79.0074C517.759 81.0147 522.123 83.9484 525.875 87.7313ZM499.307 75.9964C503.977 76.1509 508.495 77.1545 512.782 78.853L508.418 89.507C505.509 88.2718 502.293 87.5769 498.924 87.4997L499.307 75.9964ZM497.776 75.9964C498.159 75.9964 498.541 75.9964 498.848 75.9964L498.465 87.4997C498.235 87.4997 498.005 87.4997 497.699 87.4997C494.483 87.4997 491.344 88.0402 488.511 89.0438L484.683 78.1581C488.894 76.7685 493.258 75.9964 497.776 75.9964ZM484.454 78.3125L488.282 89.1982C484.683 90.5107 481.391 92.518 478.635 95.0657L470.825 86.6505C474.806 82.9447 479.4 80.0882 484.454 78.3125ZM469.753 87.7313C469.983 87.4997 470.289 87.1909 470.519 86.9593L478.328 95.3745C475.802 97.7678 473.735 100.702 472.203 103.944L461.791 99.0802C463.781 94.9113 466.384 91.0511 469.753 87.7313ZM461.637 99.3891L472.05 104.253C470.595 107.495 469.677 111.124 469.524 114.907L458.116 114.521C458.345 109.194 459.57 104.098 461.637 99.3891ZM458.116 115.988C458.116 115.602 458.116 115.216 458.116 114.907L469.524 115.293C469.524 115.525 469.524 115.756 469.524 116.065C469.524 119.462 470.136 122.704 471.208 125.715L460.489 129.73C458.881 125.329 458.116 120.774 458.116 115.988ZM468.681 143.241C465.083 139.38 462.327 134.903 460.566 130.039L471.284 126.024C472.586 129.498 474.577 132.664 477.027 135.366L468.681 143.241ZM469.753 144.321C469.524 144.09 469.217 143.781 468.988 143.549L477.333 135.675C479.171 137.605 481.238 139.303 483.535 140.616L478.099 150.806C475.036 148.954 472.28 146.869 469.753 144.321ZM478.099 152.042C479.4 152.737 480.702 153.431 482.08 153.972L480.702 157.369C480.396 157.292 480.013 157.214 479.707 157.214C477.869 157.214 476.414 158.681 476.414 160.534C476.414 162.387 477.869 163.854 479.707 163.854C481.544 163.854 482.999 162.387 482.999 160.534C482.999 159.144 482.157 157.986 481.008 157.446L482.386 154.049C486.75 155.825 491.421 156.828 496.244 156.983L496.168 160.457C494.407 160.534 492.952 162.001 492.952 163.777C492.952 165.63 494.407 167.096 496.244 167.096C498.082 167.096 499.537 165.63 499.537 163.777C499.537 162.001 498.235 160.611 496.551 160.457L496.627 156.983C497.01 156.983 497.393 156.983 497.776 156.983C502.37 156.983 506.887 156.211 511.174 154.744L512.399 158.141C511.251 158.681 510.485 159.839 510.485 161.152C510.485 163.005 511.94 164.471 513.778 164.471C515.615 164.471 517.07 163.005 517.07 161.152C517.07 159.299 515.615 157.832 513.778 157.832C513.395 157.832 513.012 157.909 512.706 157.986L511.557 154.589C513.624 153.817 515.615 152.968 517.453 151.887L532.995 180.839H462.48L478.099 152.042Z"
        fill="white" fill-opacity="0.8" />
    <path
        d="M594.624 100.611C594.624 100.074 594.24 99.6899 593.856 99.6899C593.396 99.6899 593.089 100.074 593.089 100.611C593.089 101.148 593.473 101.532 593.856 101.532C594.317 101.532 594.624 101.071 594.624 100.611Z"
        fill="white" />
    <path
        d="M679.502 213.27L674.667 180.961H664.767V154.178H665.995V151.722H661.237V141.285H660.623V151.722H657.323V143.203H656.709V151.722H636.756V154.178H638.137V208.589H615.268V184.185H602.298V124.325H603.526V121.408H600.917V117.648H597.924V116.19V111.892V108.208H594.317V101.532H593.856H593.473V108.208H591.477L590.326 111.892H582.498V117.648H561.854V121.408H559.322V124.325H560.473V163.31H543.282V201.605L524.173 193.087V155.943H527.243V153.18H521.794V145.813H498.617V153.18H491.02V145.813H487.106V153.18H483.192V145.813H478.894V153.18H469.915V155.943H471.297V207.438H462.625V206.901H461.013V192.243H462.625V191.091H461.013V176.357H462.625V175.206H461.013V160.548H462.625V159.32H461.013V144.662H462.625V143.51H461.013V128.852H462.625V127.625H461.013V112.429H463.699V111.278H465.081V108.055H439.448V104.448H440.292V103.45H426.325V104.448H427.169V108.055H420.799V111.278H422.181V112.429H424.867V127.625H423.255V128.852H424.867V143.51H423.255V144.662H424.867V159.32H423.255V160.548H424.867V175.206H423.255V176.357H424.867V191.091H423.255V192.243H424.867V206.901H423.255V208.052H424.867V220.101H416.118V173.747H380.893V207.438H375.137V102.453H370.916V105.139L363.088 107.057V105.292H358.867V108.055L351.116 109.974V107.978H346.819V111.048L339.068 112.967V111.278H334.77V113.964L327.019 115.883V114.425H322.798V217.568H316.812V162.62H294.787V196.387H272.147V167.608H269.384V158.092H270.996V157.171H263.705V154.178H262.938V157.171H260.559V141.899H260.022V157.171H256.952V158.092H258.717V167.608H243.829V189.557H229.324L221.727 217.568H206.531V126.09H186.348V122.866H187.499V121.715H172.227V122.866H173.455V126.09V131.385V194.008H163.939V170.371H167.315V168.222H143.371V153.948H138.844V150.955H128.637V153.948H120.348V204.982H93.1811V167.147H70.3115V197.001H50.4349V216.187H36.1606V192.089H17.2817V212.58H0.244629V227.084H17.2817H23.0375H32.4769H36.1606H50.4349H70.3115H76.9882H80.5184H93.1811H120.348H128.637H138.844H143.371H161.253H163.939H173.455H189.341H197.245H206.531H243.829H252.424H267.005H272.147H295.17H301.31H322.798H324.87H327.019H334.77H339.068H346.819H350.349H351.116H358.867H363.088H369.842H370.916H373.065H375.137H380.893H409.979H414.123H416.118H424.867H440.292H454.413H461.013H471.297H496.852H523.866H524.173H543.282H553.95H560.473H564.617H596.619H602.298H609.128H615.268H638.137H655.098H658.551H664.767H702.755V213.27H679.502Z"
        fill="white" />
</svg>